<?xml version="1.0" encoding="UTF-8"?><svg id="Layer_1" xmlns="http://www.w3.org/2000/svg" viewBox="0 0 120 120"><defs><style>.cls-1{fill:#00599c;}.cls-1,.cls-2,.cls-3,.cls-4{stroke-width:0px;}.cls-2{fill:#659ad2;}.cls-3{fill:#194781;}.cls-4{fill:#fff;}</style></defs><path class="cls-1" d="M103.3,85c.7-1.21,1.13-2.57,1.13-3.79v-42.42c0-1.22-.43-2.58-1.13-3.79l-43.3,25,43.3,25Z"/><path class="cls-3" d="M63.85,109.08l36.74-21.21c1.06-.61,2.02-1.67,2.72-2.87l-43.31-25-43.3,25c.7,1.21,1.66,2.26,2.72,2.87l36.74,21.21c2.11,1.23,5.57,1.23,7.69,0h0Z"/><path class="cls-2" d="M103.3,35c-.7-1.21-1.66-2.27-2.72-2.87L63.85,10.92c-2.12-1.22-5.58-1.22-7.7,0l-36.73,21.21c-2.12,1.22-3.85,4.22-3.85,6.66v42.42c0,1.22.43,2.58,1.13,3.79l43.3-25,43.3-25Z"/><path class="cls-4" d="M60,30.38c-16.33,0-29.62,13.29-29.62,29.62s13.29,29.62,29.62,29.62c10.54,0,20.37-5.67,25.65-14.8l-12.82-7.42c-2.65,4.57-7.56,7.41-12.83,7.41-8.17,0-14.81-6.64-14.81-14.81s6.65-14.81,14.81-14.81c5.27,0,10.19,2.84,12.83,7.41l12.82-7.42c-5.28-9.13-15.11-14.8-25.65-14.8h0ZM83.04,55.06v3.29h-3.29v3.29h3.29v3.29h3.29v-3.29h3.29v-3.29h-3.29v-3.29s-3.29,0-3.29,0ZM95.38,55.06v3.29h-3.29v3.29h3.29v3.29h3.29v-3.29h3.29v-3.29h-3.29v-3.29s-3.29,0-3.29,0Z"/></svg>