<?xml version="1.0" encoding="UTF-8"?><svg id="Layer_1" xmlns="http://www.w3.org/2000/svg" viewBox="0 0 120 120"><defs><style>.cls-1{fill:#e82f30;}.cls-1,.cls-2{stroke-width:0px;}.cls-2{fill:#0774bc;}</style></defs><path class="cls-2" d="M46.87,87.33s-3.82,2.22,2.72,2.97c7.92.91,11.97.78,20.7-.87,0,0,2.3,1.44,5.51,2.68-19.58,8.39-44.31-.48-28.93-4.78ZM44.47,76.39s-4.28,3.17,2.26,3.85c8.47.87,15.15.95,26.72-1.28,0,0,1.6,1.62,4.11,2.51-23.66,6.91-50.02.54-33.09-5.08Z"/><path class="cls-1" d="M64.64,57.81c4.83,5.56-1.27,10.55-1.27,10.55,0,0,12.25-6.32,6.62-14.24-5.25-7.38-9.28-11.05,12.53-23.7,0,0-34.23,8.55-17.88,27.39Z"/><path class="cls-2" d="M90.53,95.43s2.83,2.33-3.11,4.13c-11.3,3.42-47.03,4.45-56.95.14-3.57-1.55,3.12-3.71,5.23-4.16,2.19-.48,3.45-.39,3.45-.39-3.97-2.79-25.65,5.49-11.01,7.86,39.9,6.48,72.74-2.91,62.39-7.58ZM48.7,65.04s-18.17,4.32-6.44,5.89c4.96.66,14.84.51,24.04-.26,7.52-.63,15.07-1.98,15.07-1.98,0,0-2.65,1.14-4.57,2.45-18.46,4.86-54.11,2.59-43.85-2.37,8.69-4.21,15.75-3.73,15.75-3.73ZM81.31,83.27c18.76-9.75,10.09-19.11,4.03-17.85-1.48.31-2.14.58-2.14.58,0,0,.55-.86,1.6-1.24,11.98-4.21,21.19,12.42-3.86,19.01,0-.01.28-.27.37-.5Z"/><path class="cls-1" d="M70,10s10.39,10.4-9.86,26.38c-16.24,12.82-3.7,20.13,0,28.49-9.48-8.55-16.43-16.08-11.77-23.08,6.86-10.29,25.83-15.28,21.64-31.79Z"/><path class="cls-2" d="M50.55,109.69c18.01,1.15,45.66-.64,46.32-9.16,0,0-1.26,3.23-14.88,5.79-15.37,2.89-34.33,2.56-45.57.7-.01,0,2.29,1.91,14.13,2.67Z"/></svg>