<?xml version="1.0" encoding="UTF-8"?><svg id="Layer_1" xmlns="http://www.w3.org/2000/svg" xmlns:xlink="http://www.w3.org/1999/xlink" viewBox="0 0 120 120"><defs><style>.cls-1{fill:url(#linear-gradient);}.cls-1,.cls-2,.cls-3{stroke-width:0px;}.cls-2{fill:url(#linear-gradient-2);}.cls-3{fill:url(#radial-gradient);isolation:isolate;opacity:.44;}</style><linearGradient id="linear-gradient" x1="347.8" y1="-424.74" x2="436.05" y2="-348.8" gradientTransform="translate(-183.01 253.87) scale(.56)" gradientUnits="userSpaceOnUse"><stop offset="0" stop-color="#5b9fd3"/><stop offset="1" stop-color="#306a99"/></linearGradient><linearGradient id="linear-gradient-2" x1="470.13" y1="-302.84" x2="438.61" y2="-347.43" gradientTransform="translate(-183.01 253.87) scale(.56)" gradientUnits="userSpaceOnUse"><stop offset="0" stop-color="#ffd43c"/><stop offset="1" stop-color="#fee774"/></linearGradient><radialGradient id="radial-gradient" cx="96.81" cy="-433.99" fx="96.81" fy="-433.99" r="26.74" gradientTransform="translate(462.53 124.62) rotate(-90) scale(.21 .93)" gradientUnits="userSpaceOnUse"><stop offset="0" stop-color="#b8b9b9" stop-opacity=".5"/><stop offset="1" stop-color="#7f7f7f" stop-opacity="0"/></radialGradient></defs><path class="cls-1" d="M59.46,10c-3.71.02-7.25.33-10.37.89-9.19,1.62-10.85,5.02-10.85,11.28v8.27h21.71v2.76h-29.85c-6.31,0-11.83,3.79-13.56,11.01-1.99,8.27-2.08,13.43,0,22.06,1.54,6.43,5.23,11,11.54,11h7.46v-9.92c0-7.16,6.2-13.48,13.56-13.48h21.68c6.04,0,10.85-4.97,10.85-11.03v-20.67c0-5.88-4.96-10.3-10.85-11.28-3.73-.62-7.6-.9-11.31-.89ZM47.73,16.65c2.24,0,4.07,1.86,4.07,4.15s-1.83,4.12-4.07,4.12-4.07-1.84-4.07-4.12c0-2.29,1.82-4.15,4.07-4.15Z"/><path class="cls-2" d="M84.33,33.2v9.64c0,7.47-6.34,13.76-13.56,13.76h-21.68c-5.94,0-10.85,5.08-10.85,11.03v20.67c0,5.88,5.11,9.34,10.85,11.03,6.87,2.02,13.46,2.38,21.68,0,5.46-1.58,10.85-4.77,10.85-11.03v-8.27h-21.68v-2.76h32.53c6.31,0,8.66-4.4,10.85-11,2.27-6.8,2.17-13.34,0-22.06-1.56-6.28-4.54-11.01-10.85-11.01h-8.15ZM72.14,85.54c2.25,0,4.07,1.84,4.07,4.12s-1.82,4.15-4.07,4.15-4.07-1.86-4.07-4.15,1.83-4.12,4.07-4.12Z"/><path class="cls-3" d="M89.28,104.36c0,3.11-13.02,5.64-29.09,5.64s-29.09-2.53-29.09-5.64,13.02-5.64,29.09-5.64,29.09,2.52,29.09,5.64Z"/></svg>