<?xml version="1.0" encoding="UTF-8"?><svg id="Layer_1" xmlns="http://www.w3.org/2000/svg" viewBox="0 0 120 120"><defs><style>.cls-1{fill:#000;stroke-width:0px;}</style></defs><path class="cls-1" d="M59.9,10c-.31,0-.62.08-.9.24h0c-.09.06-.13.1-.18.15-.06.06-.11.12-.16.19-.14.18-.28.37-.41.56-.37.54-.72,1.08-1.06,1.64-.47.76-.82,1.33-1.09,1.69-.28.36-.46.46-.56.47-.11.01-.31-.06-.67-.36-.35-.3-.82-.79-1.45-1.44-.82-.86-1.32-1.37-1.73-1.69-.4-.32-.76-.45-1.1-.45-.43,0-.86.09-1.19.34-.17.13-.21.23-.3.39-.09.16-.19.35-.3.58-.26.55-.49,1.1-.7,1.67-.52,1.4-.8,2.12-.99,2.45-.09.16-.14.21-.18.23-.03.02-.08.04-.22.07h0s-.21-.02-.6-.24c-.39-.22-.97-.61-1.79-1.19h0c-.56-.4-1.13-.78-1.71-1.14-.21-.13-.42-.25-.64-.36-.18-.09-.26-.16-.52-.16-.29,0-.57.04-.82.18-.25.14-.45.37-.61.66-.3.59-.48,1.45-.72,2.89-.15.91-.27,1.59-.39,2.04-.13.45-.25.63-.35.68-.09.05-.29.06-.73-.08-.43-.14-1.05-.42-1.87-.79-.6-.28-1.22-.54-1.83-.78-.26-.1-.48-.18-.66-.24-.18-.06-.26-.11-.46-.11-.24,0-.42.09-.61.2-.19.11-.39.25-.55.42-.25.25-.48.54-.54,1.02-.05.48-.01,1.17.05,2.56l.13,2.54-.31.17c-.2.1-.26.13-.61.1-.35-.03-.94-.16-1.98-.4h0c-1.36-.32-2.18-.49-2.82-.47-.56,0-1.08.28-1.4.73l-.51.68.58,2.47c.29,1.26.57,2.47.63,2.7,0,.04-.05.36-.13.47-.05.06-.06.07-.1.09-.04.02-.14.05-.32.07-.37.04-1.07.04-2.32.02-1.06-.02-1.88,0-2.52.08s-1.14.27-1.42.69c-.28.42-.25.95-.08,1.57.17.61.49,1.36.93,2.32.28.6.53,1.17.71,1.61.09.22.16.4.21.53.02.07.04.12.05.15,0,.1-.02.16-.05.21-.04.05-.11.12-.29.21-.36.16-1.09.33-2.27.52-.77.13-1.55.25-2.32.36l-.16.02s-.09,0-.03,0c-.16,0-.21.04-.27.08-.06.03-.12.07-.18.12-.12.09-.25.2-.38.32-.21.21-.38.45-.46.73-.08.29-.06.6.04.92.2.65.68,1.41,1.51,2.58.51.72.89,1.26,1.11,1.66.22.39.24.6.21.7-.03.11-.18.27-.59.48-.41.21-1.04.46-1.89.78-.97.37-1.71.67-2.25.98-.54.31-.93.64-1.04,1.12-.1.48.12.95.49,1.43.37.48.93,1.03,1.67,1.73.68.65,1.19,1.13,1.5,1.49.31.36.39.58.38.69,0,.11-.11.29-.47.57s-.94.65-1.71,1.13c-1.17.73-1.77,1.1-2.14,1.45-.37.35-.45.75-.48,1.15-.02.24-.04.46.01.7.05.24.19.47.4.68.42.41,1.12.83,2.52,1.68.69.42,1.21.74,1.52,1,.31.25.38.39.38.5,0,.11-.09.34-.41.71-.32.37-.82.85-1.5,1.49-.74.69-1.29,1.24-1.66,1.73-.37.49-.59.95-.48,1.44.11.48.5.82,1.05,1.13.54.31,1.28.61,2.25.97.84.32,1.47.56,1.88.76.41.21.55.37.58.47.03.1,0,.31-.21.7-.22.39-.6.94-1.11,1.66-1.17,1.65-1.61,2.36-1.61,3.06,0,.27.03.54.17.78.14.25.37.43.66.58.58.28,1.45.46,2.94.71,1.24.21,1.99.38,2.36.55.19.08.27.15.31.21.04.05.05.1.05.21,0-.09,0-.05,0-.01-.02.05-.03.1-.05.16-.05.13-.12.32-.21.54-.18.44-.43,1.02-.71,1.62-.44.95-.75,1.68-.93,2.29-.17.6-.22,1.12.05,1.54.26.42.75.6,1.37.7.61.1,1.41.11,2.44.11.96,0,1.67,0,2.15.03.48.04.69.14.75.2.06.07.11.24.05.67-.06.44-.22,1.07-.43,1.94-.31,1.3-.48,2.08-.49,2.67-.01.59.2,1.02.52,1.34.31.31.77.43,1.4.39.63-.04,1.47-.2,2.75-.51.97-.23,1.53-.35,1.87-.38.34-.03.4,0,.59.09l.29.16-.13,2.54c-.07,1.39-.11,2.08-.05,2.56.05.48.28.77.54,1.02.17.17.36.31.56.42.2.11.38.2.62.2.2,0,.28-.05.46-.1.18-.06.41-.14.66-.24.52-.2,1.17-.48,1.83-.78.82-.37,1.43-.65,1.86-.79.43-.14.63-.13.72-.08.09.05.22.23.34.67.12.45.24,1.13.39,2.03.24,1.45.42,2.31.73,2.9.15.29.36.52.61.66s.53.17.82.17c.24,0,.33-.07.51-.16.18-.08.39-.2.63-.34.57-.34,1.13-.7,1.67-1.09,1.02-.73,1.67-1.15,2.07-1.32.38-.16.44-.13.62-.02.02.03.04.06.07.12.07.13.17.33.28.57.22.48.48,1.12.75,1.8.39,1.02.66,1.67.9,2.12.24.45.49.72.79.87.48.23,1.04.24,1.59-.1s1.16-.96,2.13-2.02c.58-.64,1.03-1.11,1.36-1.39s.52-.34.64-.33c.12.01.31.13.6.5.29.37.65.94,1.13,1.71.53.86.97,1.51,1.38,1.97.41.46.84.77,1.35.76.5,0,.93-.32,1.35-.79.42-.47.86-1.14,1.41-2.01.47-.75.81-1.31,1.09-1.66.28-.35.45-.45.55-.45.1,0,.31.06.66.36.35.3.82.79,1.45,1.45h0c.84.88,1.35,1.39,1.75,1.7s.77.44,1.12.44c.23,0,.46-.04.67-.11.21-.07.4-.14.56-.31.13-.13.17-.23.26-.4.09-.17.19-.38.3-.63.23-.5.49-1.14.74-1.81.25-.66.5-1.27.71-1.73.1-.23.19-.42.26-.54.03-.05.05-.09.07-.12.06-.04.12-.06.19-.06.08,0,.21.02.41.11.4.17,1.05.59,2.07,1.31.61.44,1.21.82,1.69,1.1.24.14.46.25.64.34s.29.15.52.15c.3,0,.59-.05.85-.21.26-.16.46-.4.61-.71.31-.61.5-1.51.71-2.93.18-1.19.29-1.85.39-2.18.1-.33.1-.29.3-.39.19-.1.19-.11.53-.02.35.1.96.36,2.04.85h0c.67.3,1.32.58,1.83.78.26.1.48.18.66.24.18.06.27.1.47.1.25,0,.43-.09.62-.2.2-.11.4-.26.57-.43l.64-.64-.15-2.84c-.07-1.28-.09-1.95-.06-2.29.03-.34.03-.29.22-.46.1-.09.15-.13.18-.15.03-.01.07-.03.22-.02.28.02.89.15,2.06.41,1.42.32,2.27.5,2.89.52.62.02,1.06-.18,1.37-.49.14-.14.27-.27.37-.47s.13-.44.11-.71c-.03-.54-.21-1.32-.57-2.82-.2-.84-.36-1.47-.41-1.89-.06-.42,0-.58.05-.65.06-.07.27-.16.76-.2.48-.04,1.2-.03,2.16-.03,1.31,0,2.04,0,2.53-.07.49-.06.81-.24,1.01-.46.34-.37.49-.89.37-1.52-.12-.63-.44-1.41-1.01-2.61-.25-.53-.49-1.06-.72-1.6-.09-.22-.16-.4-.21-.53-.02-.05-.03-.1-.05-.15,0-.1.02-.16.06-.21.04-.05.13-.13.32-.22.39-.17,1.16-.34,2.44-.55.68-.11,1.36-.24,2.03-.4.27-.07.49-.13.68-.2.18-.06.31-.1.46-.24.22-.2.39-.44.47-.74.07-.29.04-.61-.06-.94-.21-.67-.7-1.46-1.53-2.61h0c-.51-.72-.89-1.25-1.11-1.65-.22-.39-.24-.59-.22-.69s.16-.25.56-.45c.39-.2,1-.43,1.82-.73.99-.36,1.74-.67,2.3-.98.56-.31.96-.66,1.07-1.15.11-.49-.1-.97-.47-1.47-.37-.5-.93-1.06-1.67-1.76-.68-.65-1.19-1.13-1.5-1.49-.31-.36-.4-.58-.39-.69,0-.11.1-.27.44-.54.34-.27.9-.61,1.65-1.07.91-.56,1.59-1.01,2.08-1.43.49-.42.81-.85.82-1.36,0-.51-.31-.94-.79-1.36-.48-.42-1.15-.87-2.05-1.42-.76-.47-1.33-.83-1.69-1.1-.35-.28-.45-.45-.46-.56,0-.11.07-.32.38-.69.31-.36.82-.85,1.51-1.5.74-.7,1.29-1.25,1.66-1.73.37-.49.6-.95.49-1.43-.1-.48-.5-.82-1.04-1.12-.54-.31-1.28-.61-2.25-.98-.85-.33-1.49-.57-1.9-.78-.41-.21-.56-.38-.6-.48-.03-.1,0-.3.21-.69.22-.39.6-.92,1.12-1.63.62-.85,1.01-1.42,1.26-1.87.25-.46.36-.83.36-1.18,0-.28-.03-.55-.16-.81-.13-.25-.36-.45-.65-.6-.58-.29-1.45-.46-2.95-.7-1.24-.2-1.99-.37-2.36-.53-.19-.08-.27-.16-.3-.21-.03-.05-.05-.11-.05-.21.01-.03.03-.08.05-.15.05-.13.12-.31.21-.53.23-.53.46-1.06.71-1.59.55-1.18.88-2.01.98-2.68s-.05-1.24-.45-1.6c-.22-.2-.54-.33-1.03-.38-.49-.05-1.2-.05-2.39-.03-1.24.02-1.94.02-2.33-.02-.39-.04-.4-.07-.54-.2h0c-.09-.09-.12-.13-.13-.15,0-.02-.03-.06-.01-.21.02-.3.17-.94.46-2.16h0c.36-1.5.55-2.27.57-2.82.01-.27-.03-.52-.14-.72s-.25-.34-.41-.48h0c-.33-.31-.75-.53-1.34-.52-.59.02-1.37.19-2.76.51-1,.24-1.59.36-1.94.39-.35.03-.41,0-.6-.1l-.3-.16.13-2.53.15-2.95-.64-.64c-.17-.17-.35-.31-.56-.43-.19-.11-.37-.2-.62-.2-.21,0-.28.05-.46.11-.18.06-.4.14-.66.24-.51.2-1.16.48-1.83.79-1.1.51-1.71.77-2.05.87-.34.1-.32.08-.52-.03-.2-.1-.2-.08-.32-.42-.11-.35-.24-1.03-.44-2.26-.23-1.44-.41-2.31-.72-2.9-.15-.3-.36-.53-.61-.67-.26-.14-.54-.18-.83-.18-.25,0-.34.08-.52.16-.18.09-.4.21-.65.36-.59.36-1.16.74-1.72,1.14-1,.72-1.57,1.11-1.9,1.27-.33.17-.32.14-.52.07-.14-.04-.26-.13-.34-.25-.11-.14-.23-.38-.37-.76h0c-.22-.58-.63-1.69-.93-2.46-.3-.8-.53-1.32-.87-1.68s-.8-.5-1.3-.5c-.34,0-.69.15-1.1.47-.41.32-.92.83-1.73,1.67-.63.65-1.1,1.14-1.46,1.44-.36.3-.56.37-.67.36-.11-.01-.28-.11-.56-.47-.28-.35-.62-.92-1.09-1.68-.38-.61-.76-1.2-1.08-1.64-.13-.19-.28-.38-.42-.56-.12-.15-.17-.24-.37-.35-.28-.15-.6-.23-.92-.23h0ZM59.19,10.57l.2.34c.3-.18.7-.18,1.05,0h0c-.09-.05.03.04.14.16.1.12.24.3.39.51.37.52.72,1.05,1.05,1.6.46.76.81,1.33,1.14,1.75.33.42.66.72,1.1.76.44.04.83-.19,1.24-.53.41-.34.89-.84,1.52-1.49.8-.83,1.31-1.33,1.65-1.6.34-.27.46-.3.61-.3.39,0,.54.04.73.25.19.21.42.65.71,1.42.29.78.71,1.89.93,2.46.15.41.3.71.48.96.19.24.43.42.7.51.3.1.69.1,1.12-.12.43-.22,1-.62,2-1.34.54-.39,1.1-.76,1.67-1.11.23-.14.44-.25.59-.32.15-.07.31-.09.17-.09.22,0,.36.03.45.08s.19.14.29.34c.21.4.41,1.25.64,2.67.2,1.24.32,1.92.47,2.37.15.46.42.73.7.87.27.14.65.21,1.1.09.45-.13,1.06-.4,2.16-.91.59-.27,1.18-.53,1.79-.77.25-.1.46-.18.62-.23.16-.05.32-.07.22-.07-.04,0,.1.02.23.1.13.08.28.19.4.3l.4.4-.14,2.6-.16,3.02.74.39h0c.27.14.6.22,1.04.18.44-.04,1.03-.17,2.04-.41,1.38-.32,2.16-.48,2.6-.49s.52.05.79.3c.14.14.22.22.26.28.04.06.06.13.05.32-.01.38-.19,1.16-.55,2.66-.29,1.23-.45,1.85-.48,2.28-.02.22,0,.42.08.59.08.17.19.28.29.38.21.21.53.37,1.01.43.48.05,1.18.05,2.43.03,1.19-.02,1.89-.02,2.3.02.41.04.48.08.59.18.22.2.29.38.2.9-.09.52-.38,1.32-.92,2.48-.28.6-.54,1.17-.72,1.62-.09.22-.17.41-.22.56-.02.06-.05.13-.07.2-.02.06-.04.08-.04.21,0,.23.05.47.19.68.14.21.36.35.62.47.53.24,1.3.39,2.55.59,1.49.24,2.34.43,2.73.63.2.1.27.17.31.26.05.09.07.22.07.45s-.05.42-.26.81c-.21.39-.59.95-1.2,1.79-.52.71-.91,1.25-1.17,1.7-.26.46-.4.88-.27,1.3.14.42.5.69.98.93.48.25,1.13.49,1.98.82.96.37,1.68.66,2.14.93.47.26.63.47.66.61.03.14-.03.38-.35.8-.32.41-.85.95-1.58,1.64-.68.65-1.2,1.13-1.56,1.55-.36.42-.6.8-.57,1.25.03.45.34.78.75,1.11.42.33.99.68,1.76,1.15.88.55,1.54.99,1.94,1.35.41.36.53.6.53.77,0,.17-.13.42-.55.78-.42.36-1.08.8-1.98,1.35-.75.46-1.31.8-1.72,1.12-.41.32-.71.66-.74,1.1-.03.44.22.82.58,1.24.36.42.87.9,1.56,1.55.73.69,1.26,1.24,1.58,1.66s.38.67.34.83c-.04.16-.22.38-.7.65s-1.21.57-2.19.93c-.82.3-1.44.53-1.91.77-.47.24-.82.5-.95.92-.13.42.02.84.28,1.29.25.46.64,1,1.16,1.72.81,1.13,1.26,1.91,1.42,2.4.08.24.08.41.05.52-.03.12-.09.22-.23.35.04-.04-.06.03-.2.08-.2.07-.4.13-.6.18-.5.13-1.18.26-1.97.39-1.3.21-2.09.37-2.63.6-.27.12-.49.26-.64.46-.14.2-.21.43-.21.67,0,.13.02.15.04.21.02.06.04.12.07.2.05.15.13.34.23.56.19.45.45,1.03.73,1.63.56,1.18.86,1.95.95,2.42.09.48.03.62-.19.86-.13.15-.13.17-.52.21-.4.05-1.12.06-2.43.06-.96,0-1.67,0-2.22.03-.55.04-.98.13-1.27.45-.29.33-.31.77-.24,1.27.07.5.23,1.13.43,1.97.36,1.5.53,2.29.55,2.68.01.2,0,.28-.04.34-.03.06-.09.13-.21.26-.22.22-.31.28-.8.26-.49-.02-1.33-.18-2.74-.5-1.17-.27-1.76-.41-2.19-.43-.21-.01-.41.01-.58.09-.17.08-.28.18-.39.28-.28.25-.44.59-.47.96-.04.46,0,1.13.06,2.4l.13,2.5-.4.4h0c-.12.12-.25.22-.4.3-.14.08-.27.1-.24.1.09,0-.06-.02-.22-.07-.21-.07-.42-.15-.62-.23-.6-.24-1.2-.49-1.79-.76-1.09-.49-1.7-.76-2.15-.89-.45-.13-.82-.07-1.09.07-.27.14-.55.41-.69.85-.14.44-.24,1.1-.42,2.29-.21,1.39-.41,2.25-.63,2.69-.11.22-.22.33-.32.4-.11.06-.24.1-.44.1.09,0-.04-.01-.19-.08-.2-.09-.39-.19-.57-.3-.56-.33-1.1-.68-1.63-1.06-1.03-.73-1.69-1.17-2.21-1.39-.26-.11-.5-.18-.73-.17-.23,0-.45.08-.63.2-.14.09-.14.14-.18.19-.04.06-.08.12-.12.2-.08.15-.18.35-.29.59-.26.58-.5,1.17-.73,1.77-.25.66-.51,1.29-.73,1.77-.11.24-.2.44-.28.59-.08.15-.17.26-.12.21h0s-.11.07-.24.12c-.14.04-.29.07-.43.07-.22,0-.31-.02-.64-.28-.33-.26-.84-.76-1.67-1.63-.63-.66-1.1-1.15-1.51-1.5-.41-.35-.79-.58-1.23-.54-.44.04-.77.34-1.09.75-.32.41-.67.98-1.14,1.73-.54.86-.97,1.5-1.33,1.9-.36.4-.61.53-.78.53-.17,0-.41-.11-.76-.5-.35-.39-.77-1.02-1.3-1.86-.48-.77-.84-1.36-1.18-1.79-.34-.43-.67-.73-1.11-.79-.44-.06-.84.17-1.24.5-.4.34-.85.82-1.43,1.46-.96,1.05-1.58,1.64-1.97,1.89-.4.25-.5.22-.85.06h0c-.13-.06-.24-.16-.44-.54-.2-.38-.47-1.01-.86-2.03-.24-.62-.49-1.24-.77-1.85-.09-.21-.19-.41-.3-.61-.04-.07-.08-.14-.13-.21-.04-.06-.05-.11-.18-.2-.36-.23-.84-.26-1.37-.04s-1.17.66-2.21,1.4c-.52.37-1.06.73-1.61,1.05-.19.11-.38.21-.57.31-.15.07-.29.08-.18.08-.22,0-.36-.03-.46-.08-.1-.05-.19-.14-.29-.34-.21-.4-.41-1.24-.65-2.67-.15-.91-.26-1.59-.41-2.11-.14-.52-.33-.93-.72-1.15-.39-.21-.83-.15-1.34.02-.51.17-1.12.45-1.94.82-.59.27-1.19.52-1.79.76-.25.1-.46.18-.62.23-.16.05-.31.07-.22.07.03,0-.11-.02-.24-.1-.14-.08-.27-.18-.39-.29-.25-.25-.28-.22-.32-.56-.04-.34,0-1.05.06-2.44l.15-3.03-.73-.39c-.27-.14-.59-.22-1.02-.18-.43.04-1,.17-1.98.4-1.26.3-2.09.46-2.61.49-.52.03-.68-.04-.8-.16h0c-.24-.24-.3-.33-.3-.78,0-.45.16-1.22.47-2.51.21-.86.37-1.5.44-2.01.07-.51.06-.96-.23-1.29-.29-.33-.72-.42-1.27-.47-.55-.05-1.26-.04-2.21-.04-1.02,0-1.79-.02-2.32-.1-.52-.08-.75-.21-.83-.34-.08-.13-.11-.4.04-.92.15-.52.46-1.24.89-2.18.28-.61.53-1.19.72-1.65.09-.23.17-.42.22-.57.03-.08.05-.14.07-.2s.04-.08.04-.21c0-.22-.05-.47-.2-.67s-.36-.35-.62-.46c-.52-.23-1.29-.39-2.55-.6-1.47-.25-2.32-.44-2.72-.64-.2-.1-.28-.18-.33-.26-.05-.08-.07-.2-.07-.4,0-.32.31-.98,1.47-2.61.51-.72.9-1.27,1.16-1.73.25-.46.4-.89.27-1.31-.13-.42-.5-.69-.97-.93-.48-.24-1.11-.48-1.96-.8-.96-.36-1.68-.66-2.15-.92-.47-.26-.64-.47-.67-.62-.03-.14.03-.39.35-.8.31-.41.85-.95,1.57-1.64.68-.64,1.19-1.13,1.56-1.55.36-.42.6-.79.6-1.22,0-.44-.29-.78-.67-1.1-.38-.31-.91-.63-1.6-1.06-1.4-.85-2.11-1.3-2.38-1.57-.14-.13-.16-.2-.18-.29-.02-.09-.02-.24,0-.48.03-.39,0-.41.24-.65.25-.24.85-.62,2.02-1.36.77-.49,1.36-.85,1.78-1.18.42-.33.73-.67.77-1.12.03-.45-.21-.83-.57-1.25-.36-.42-.88-.9-1.56-1.55-.73-.69-1.27-1.23-1.59-1.64-.32-.41-.38-.65-.35-.79.03-.14.2-.35.66-.61.47-.26,1.18-.56,2.14-.93.85-.32,1.49-.57,1.97-.81.48-.25.84-.51.98-.93s-.01-.85-.27-1.31-.64-1.01-1.16-1.73c-.82-1.15-1.26-1.9-1.4-2.35-.07-.23-.07-.37-.03-.49.03-.12.11-.24.26-.39h0s0,0,0,0c.1-.1.2-.19.28-.25.04-.03.06-.04.08-.05.01,0,.03,0,.05,0l.18-.02c.14-.02.34-.05.57-.09.47-.07,1.09-.17,1.76-.28,1.2-.2,1.95-.35,2.47-.58.26-.12.47-.27.61-.47s.19-.44.19-.67c0-.13-.02-.15-.04-.2-.02-.07-.04-.13-.07-.2-.05-.15-.13-.34-.22-.56-.23-.55-.47-1.1-.72-1.64-.43-.95-.74-1.68-.89-2.2-.15-.53-.11-.79-.02-.93.09-.14.33-.27.88-.35.55-.08,1.34-.09,2.4-.07,1.25.02,1.95.02,2.41-.03.23-.03.42-.07.58-.15.16-.08.29-.2.37-.31h0c.25-.32.37-.71.27-1.12h0s0,0,0,0c-.05-.21-.34-1.44-.63-2.7l-.5-2.12.29-.39c.24-.32.34-.4.8-.42s1.27.13,2.62.45c1.04.25,1.64.38,2.08.42.44.04.78-.04,1.05-.19l.74-.4-.15-3.03c-.07-1.39-.1-2.09-.06-2.44.04-.34.06-.31.32-.56h0c.12-.12.25-.21.39-.3.13-.07.26-.1.23-.1-.1,0,.06.01.22.07.16.05.37.13.62.23.5.19,1.14.47,1.8.76.82.37,1.44.66,1.94.82.51.17.95.23,1.34.02.39-.22.57-.63.72-1.15.14-.52.25-1.21.41-2.12.24-1.42.44-2.26.65-2.67.1-.2.19-.29.29-.34s.23-.08.44-.08c-.13,0,.02.01.17.09.15.07.35.19.58.32.57.35,1.12.71,1.66,1.1.83.59,1.42.99,1.86,1.24.45.25.77.39,1.12.32h0c.15-.03.33-.06.5-.18.17-.11.3-.28.43-.5.25-.44.51-1.16,1.04-2.55.2-.54.43-1.08.67-1.61.1-.22.2-.4.27-.53s.17-.22.09-.16c.04-.03.47-.18.73-.18.18,0,.28.02.62.28.33.26.83.76,1.65,1.62.63.66,1.1,1.15,1.51,1.5.41.35.8.58,1.24.54.44-.04.77-.35,1.1-.77.33-.42.68-1,1.14-1.76.37-.6.74-1.17,1.04-1.6.15-.21.28-.39.38-.52.05-.06.09-.11.12-.14.03-.03.06-.04,0-.01l-.19-.34ZM59.56,18.8c-.77.07-1.5.4-2.06.94-1.05,1-1.22,2.42-.74,3.56.51,1.24,1.73,2.04,3.07,2.04,3.05,0,4.37-4.17,1.89-5.94h0s0,0,0,0c-.63-.45-1.39-.66-2.16-.6ZM59.62,19.56c.56-.05,1.14.11,1.65.47,1.91,1.36.9,4.53-1.44,4.53-1.15,0-1.99-.68-2.35-1.56-.37-.88-.26-1.92.56-2.71.47-.45,1.02-.69,1.58-.74ZM53.15,23.54l-2.04.53c-5.33,1.37-10.47,3.95-14.44,7.22-.73.6-1.69,1.49-2.48,2.25-.4.38-.75.73-1,1.01-.11.11-.21.23-.31.36-.04.05-.07.09-.11.14-.03.05-.09.06-.09.27l.08.24s.07.07.1.09c.05.03.07.04.09.04.04.01.06.01.08.02.14.01.28.02.42.03.27.01.66.02,1.17.03,1.01.02,2.47.04,4.26.05,3.6.03,8.56.05,14.01.05,9.61,0,14.58,0,17.33.06,2.75.05,3.24.14,4,.34,6.41,1.63,10.65,6.64,10.27,11.94h0c-.2,2.74-2.03,5.58-5.31,8.05-.46.35-.88.68-1.19.94-.15.13-.28.24-.38.33-.04.04-.08.08-.12.13-.02.02-.04.05-.06.08-.02.04-.07.07-.07.23,0,.23.07.23.1.27.03.04.06.08.1.12.09.1.19.2.29.29.23.22.55.5.89.79,2.11,1.76,3.11,3.49,3.9,6.74.14.58.31,1.14.47,1.6.08.23.16.43.23.6.08.17.13.29.25.42.74.82,1.92,1.25,3.15,1.33,1.23.09,2.53-.17,3.54-.83,1.24-.81,1.8-2.13,1.9-4.24.03-.71.05-1.23.08-1.59.03-.35.1-.51.14-.56.04-.04.11-.08.38-.11s.7-.01,1.28-.01h2.32l.19-.95c.1-.49.12-1.39.11-2.35,0-.97-.05-1.97-.15-2.59l-.17-1.1-3.69-1.65c-.96-.43-1.87-.85-2.56-1.19-.28-.14-.57-.28-.85-.42-.21-.11-.39-.23-.33-.18h0c-.12-.1-.34-.42-.49-.79-.15-.36-.25-.77-.25-1.03,0,.05,0-.01.02-.09.02-.08.06-.19.1-.32.09-.27.23-.62.39-1.05.33-.84.79-1.94,1.3-3.08l1.93-4.34-.51-.9c-2-3.49-6.57-8.44-10.08-10.92-3.81-2.7-10.28-5.56-13.72-6.01l-1.23-.16-2.6,2.51c-1.64,1.58-2.61,2.44-3.27,2.8-.66.37-.96.32-1.64.06.07.03-.11-.07-.3-.22-.18-.15-.43-.36-.7-.61-.67-.62-1.33-1.25-1.97-1.9l-2.75-2.78ZM52.91,24.4l2.44,2.47c.72.73,1.43,1.41,2,1.93.28.26.53.47.74.64.2.16.3.26.51.34.76.29,1.47.35,2.29-.1s1.79-1.34,3.43-2.92l2.33-2.25.86.11c3.12.41,9.69,3.27,13.37,5.87,3.37,2.38,7.95,7.35,9.85,10.67l.32.56-1.77,3.98c-.46,1.03-.9,2.06-1.31,3.11-.14.36-.28.72-.4,1.08-.04.12-.08.24-.11.37-.03.1-.05.17-.05.3,0,.42.13.89.31,1.33.18.43.4.82.71,1.08h0c.14.12.25.16.47.28.22.12.52.26.87.43.7.34,1.61.76,2.58,1.19l3.31,1.48.11.68c.08.53.13,1.54.14,2.48s-.04,1.88-.1,2.2l-.06.32h-1.68c-.57,0-1-.01-1.35.01-.35.03-.68.11-.9.37-.22.26-.28.58-.32.99-.04.41-.05.92-.08,1.63-.09,2-.52,2.96-1.55,3.63-.83.54-1.98.78-3.06.7-1.08-.08-2.07-.47-2.63-1.08.02.02-.05-.08-.11-.21-.08-.18-.15-.36-.21-.54-.15-.43-.31-.98-.45-1.53-.81-3.34-1.95-5.31-4.16-7.16-.29-.24-.58-.49-.85-.76-.05-.05-.07-.07-.11-.11.07-.06.12-.11.22-.19.29-.25.71-.57,1.16-.91,3.39-2.56,5.4-5.57,5.62-8.61.42-5.75-4.15-11.04-10.84-12.75-.79-.2-1.41-.31-4.18-.36-2.77-.05-7.74-.06-17.35-.06-5.45,0-10.41-.02-14-.05-1.8-.01-3.25-.03-4.26-.05-.34,0-.55-.01-.78-.02.23-.25.52-.54.87-.88.78-.75,1.74-1.63,2.44-2.21,3.87-3.2,8.92-5.72,14.14-7.07h0s1.61-.42,1.61-.42ZM24.15,45.52c-.7.12-1.35.46-1.84.98-.98,1.01-1.39,2.64-.5,4.08,1.25,2.02,4.37,1.93,5.61-.14.42-.71.47-1.59.27-2.4-.2-.82-.66-1.58-1.37-2.04-.63-.43-1.41-.59-2.16-.47ZM95.12,45.64c-.56,0-1.11.12-1.6.38-1.22.62-1.84,1.81-1.81,2.98.03,1.16.7,2.32,1.95,2.87,1.84.81,3.54-.09,4.25-1.46.71-1.37.47-3.28-1.25-4.33-.46-.28-.99-.43-1.54-.44ZM29.63,46.03l.78,1.71c.56,1.23.84,2.05.89,2.65.05.6-.09,1-.46,1.58.04-.05-.07.07-.25.18-.18.12-.44.27-.76.44-.65.34-1.55.78-2.66,1.27h0l-3.75,1.68-.16,2.31c-.21,3.01.14,6.64.95,10.17l.48,2.07h11v-12.03h0v-12.03h-6.05ZM51.33,46.23v7.69l7.13-.07c3.3-.03,4.99-.05,6.01-.12,1.02-.07,1.43-.22,1.95-.46.77-.35,1.35-.73,1.74-1.22.39-.49.56-1.09.56-1.75,0-.89-.34-1.74-.97-2.36-.63-.63-1.54-1.09-2.69-1.39-1-.26-2.58-.32-7.3-.32h-6.43ZM24.25,46.27c.52-.09,1.09,0,1.63.36.49.32.87.93,1.04,1.58.16.66.1,1.34-.18,1.82-.95,1.58-3.35,1.65-4.28.13-.7-1.13-.37-2.34.4-3.13.39-.4.87-.68,1.39-.77ZM95.1,46.42c.41,0,.81.12,1.15.32h0c1.4.85,1.51,2.24.96,3.31-.55,1.07-1.74,1.77-3.25,1.11-.98-.43-1.46-1.3-1.49-2.18-.02-.89.42-1.78,1.39-2.27.38-.2.81-.3,1.24-.3h0ZM30.84,46.8h4.07v11.26h0v11.25h-9.61l-.34-1.47c-.8-3.45-1.13-7.03-.93-9.94l.13-1.84,3.33-1.49c1.12-.5,2.03-.94,2.7-1.3.34-.18.61-.33.82-.47.21-.14.35-.21.48-.41.43-.65.66-1.3.59-2.07-.07-.77-.39-1.64-.96-2.9l-.28-.62ZM52.1,47.01h5.65c4.71,0,6.29.08,7.11.29,1.06.28,1.84.69,2.34,1.19.5.5.75,1.09.75,1.81,0,.54-.12.92-.4,1.27-.28.35-.74.68-1.45,1-.52.23-.72.33-1.69.39-.97.07-2.66.09-5.96.12l-6.35.06v-6.14ZM51.33,63.04v7.26h4.82c1.75,0,2.87.02,3.56.06.34.02.58.05.71.08.11.02.09.02.07,0,.01.05.02.12.04.23.03.22.05.56.06,1.01.03.9.03,2.25.01,4.14l-.05,4.96-14.67.05c-4.14.01-7.9.04-10.63.07-1.36.02-2.47.03-3.24.05-.38,0-.68.02-.89.03-.08,0-.16,0-.25.02-.03,0-.06,0-.09.01-.02,0-.03,0-.07.02h-.04s-.06.05-.06.05l-.1.09-.08.23c0,.22.05.22.08.27.03.05.07.11.11.17.09.12.2.27.34.45.33.41.67.81,1.01,1.21.37.43.75.85,1.05,1.17.15.16.28.29.39.39.05.05.1.09.15.13.03.02.06.04.09.06.04.02.07.06.22.06.1,0,.1,0,.16-.02l.21-.04c.17-.03.39-.08.66-.13.54-.11,1.26-.27,2.03-.44,2.02-.45,3.25-.64,4-.57.75.07,1.04.31,1.45.92-.01-.02.07.15.14.36.07.21.16.5.25.83.18.66.39,1.51.58,2.38.38,1.75.73,3.38.79,3.65.07.31.29.51.55.71.26.2.6.39,1.01.58.82.38,1.91.77,3.16,1.14,2.5.73,5.62,1.37,8.33,1.6h0c3.18.27,6.78.04,10.1-.64,2.03-.42,5.79-1.58,7.08-2.22l.87-.43.82-3.83c.3-1.42.54-2.48.8-3.24.26-.76.53-1.18.86-1.41.33-.23.78-.32,1.52-.26s1.74.25,3.06.54c1.06.23,2.12.45,3.19.67.09.02.16.03.22.04h.06s.03.02.03.02h.07s.05,0,.07,0c.04,0,.08-.02.11-.04.03-.02.05-.03.06-.04.02-.02.05-.04.07-.06.04-.04.08-.08.14-.13.1-.1.23-.25.38-.41.36-.41.72-.82,1.08-1.24.36-.42.71-.84,1.05-1.27.14-.18.26-.33.35-.45.04-.05.08-.1.11-.16.02-.02.03-.05.04-.08.02-.03.05-.04.05-.2l-.06-.21s-.03-.04-.05-.06c-.01-.01-.03-.03-.04-.04-.05-.04-.08-.05-.1-.06-.05-.02-.07-.02-.1-.02-.05,0-.1-.02-.16-.02-.16-.01-.32-.02-.48-.03-.57-.02-1.14-.04-1.71-.05-1.87-.03-3.73-.05-5.6-.05-4.55,0-6.72.01-7.9-.2-.59-.11-.91-.26-1.22-.49-.31-.24-.62-.59-1.08-1.09-1.43-1.57-1.91-2.68-2.72-6.44-.97-4.47-1.38-5.88-2.13-6.98-.73-1.08-2.05-2.06-3.27-2.4-.19-.05-.41-.07-.76-.09-.36-.02-.81-.05-1.35-.06-1.28-.04-2.56-.06-3.84-.06h-5.51ZM52.1,63.82h4.73c1.4,0,2.76.02,3.82.06.53.02.98.04,1.32.06.34.02.6.06.61.07.97.27,2.23,1.19,2.83,2.08.65.97,1.05,2.26,2.01,6.71.82,3.79,1.4,5.15,2.9,6.79.45.49.77.88,1.18,1.19.41.31.88.51,1.55.64,1.34.24,3.5.22,8.04.22,2.18,0,4.15.02,5.58.05.69.01,1.22.03,1.62.05l-.06.07c-.28.35-.66.8-1.04,1.25-.35.41-.7.82-1.06,1.23-.15.16-.27.3-.36.39h0s-.1-.01-.1-.01l-.75-.16c-.63-.13-1.49-.31-2.43-.51-1.33-.28-2.34-.49-3.16-.55-.83-.06-1.49.03-2.02.4-.53.37-.87.97-1.15,1.8-.28.83-.52,1.91-.83,3.33l-.74,3.46-.54.26c-1.07.53-4.96,1.76-6.9,2.15-3.24.67-6.78.89-9.88.63-2.64-.22-5.73-.85-8.18-1.57-1.22-.36-2.29-.74-3.05-1.09-.38-.18-.68-.35-.88-.5-.2-.15-.26-.27-.26-.26-.05-.23-.41-1.89-.79-3.64h0c-.17-.81-.37-1.62-.58-2.42-.09-.34-.18-.63-.26-.87-.08-.23-.13-.38-.23-.54-.47-.72-1.08-1.19-2.03-1.27-.94-.08-2.2.13-4.24.58-.89.2-1.78.39-2.68.57l-.12.02-.02-.02c-.12-.12-.24-.24-.36-.36-.35-.37-.69-.76-1.03-1.14-.34-.39-.67-.78-.99-1.19l-.04-.05c.16,0,.27-.01.48-.02,1.08-.02,2.15-.04,3.23-.05,2.73-.03,6.49-.06,10.62-.07l15.43-.05.06-5.72c.02-1.89.02-3.25-.01-4.17,0-.36-.03-.71-.06-1.07-.01-.11-.03-.22-.05-.34-.02-.1-.03-.18-.13-.3-.15-.18-.32-.22-.53-.27-.27-.05-.55-.08-.83-.09-.72-.04-1.85-.06-3.6-.06h-4.05v-5.7ZM60.51,70.43s0,0,0,0h0s0,0,0,0ZM37.94,87.15c-.62,0-1.25.12-1.74.42-1.38.84-1.8,2.37-1.43,3.65s1.52,2.36,3.14,2.36c1.59,0,2.74-1.09,3.12-2.36.38-1.28.01-2.8-1.34-3.63l-.4.66c1.04.64,1.29,1.75,1,2.74-.3.99-1.14,1.81-2.38,1.81-1.28,0-2.11-.81-2.4-1.8-.28-.99,0-2.11,1.09-2.77.32-.2.83-.31,1.33-.31s1.02.13,1.35.33l.4-.66c-.5-.31-1.13-.44-1.75-.44ZM82.24,87.23c-1.37-.22-2.86.5-3.53,1.87-.44.91-.45,1.81-.16,2.55.29.75.87,1.33,1.56,1.69,1.38.72,3.32.5,4.37-1.22.85-1.39.41-3.36-.94-4.35-.38-.28-.83-.47-1.3-.54h0ZM82.11,88c.35.05.68.18.97.4,1,.73,1.34,2.33.74,3.32-.86,1.4-2.26,1.5-3.35.94-.54-.28-.98-.74-1.19-1.29s-.22-1.2.13-1.93c.51-1.05,1.66-1.6,2.7-1.44Z"/></svg>