<?xml version="1.0" encoding="UTF-8"?><svg id="Layer_1" xmlns="http://www.w3.org/2000/svg" viewBox="0 0 120 120"><defs><style>.cls-1{fill:#f05339;}.cls-1,.cls-2{stroke-width:0px;}.cls-2{fill:#fff;}</style></defs><path class="cls-1" d="M110,37.71v-3.02c-.09-2.17-.19-4.44-.57-6.61-.38-2.17-1.04-4.25-2.08-6.23-1.04-1.98-2.27-3.78-3.87-5.29-1.61-1.61-3.4-2.83-5.29-3.87-1.98-1.04-4.06-1.7-6.23-2.08-2.17-.38-4.34-.57-6.61-.57h-50.71c-.57,0-1.13,0-1.61.09-1.61.09-3.31.19-4.91.47s-3.21.76-4.72,1.32c-.47.19-1.04.47-1.51.66-1.51.76-2.83,1.7-4.15,2.74-.38.38-.85.76-1.23,1.13-1.61,1.61-2.83,3.4-3.87,5.29-1.04,1.98-1.7,4.06-2.08,6.23-.38,2.17-.47,4.34-.57,6.61v50.71c.09,2.17.19,4.44.57,6.61.38,2.17,1.04,4.25,2.08,6.23,1.04,1.98,2.27,3.78,3.87,5.29,1.61,1.61,3.4,2.83,5.29,3.87,1.98,1.04,4.06,1.7,6.23,2.08,2.17.38,4.34.57,6.61.57h50.71c2.17-.09,4.44-.19,6.61-.57s4.25-1.04,6.23-2.08,3.78-2.27,5.29-3.87c1.61-1.61,2.83-3.4,3.87-5.29,1.04-1.98,1.7-4.06,2.08-6.23.38-2.17.57-4.34.57-6.61v-47.59Z"/><path class="cls-2" d="M89.13,71.8c.09-.38.19-.76.28-1.13,4.15-16.53-5.95-36.17-23.14-46.46,7.55,10.2,10.86,22.57,7.93,33.33-.28.94-.57,1.89-.94,2.83-.38-.28-.85-.57-1.51-.85,0,0-17.09-10.58-35.6-29.18-.47-.47,9.92,14.83,21.62,27.2-5.57-3.12-20.96-14.35-30.78-23.23,1.23,1.98,2.64,3.97,4.15,5.76,8.12,10.39,18.79,23.14,31.54,32.96-8.97,5.48-21.62,5.95-34.18,0-3.12-1.42-6.04-3.21-8.78-5.19,5.29,8.5,13.5,15.86,23.51,20.21,11.9,5.1,23.8,4.82,32.58.09h0s.09,0,.09-.09c.38-.19.76-.47,1.13-.66,4.25-2.17,12.56-4.34,17.09,4.34,1.32,1.98,3.68-9.35-5-19.92h0Z"/></svg>