<?xml version="1.0" encoding="UTF-8"?><svg id="Layer_1" xmlns="http://www.w3.org/2000/svg" viewBox="0 0 120 120"><defs><style>.cls-1{fill:#3878bd;}.cls-1,.cls-2{stroke-width:0px;}.cls-2{fill:#fff;fill-rule:evenodd;}</style></defs><rect class="cls-1" x="10" y="10" width="100" height="100" rx="9.77" ry="9.77"/><rect class="cls-1" x="10" y="10" width="100" height="100" rx="9.77" ry="9.77"/><path class="cls-2" d="M71.9,89.58v9.78c1.59.81,3.47,1.43,5.64,1.83s4.46.61,6.86.61,4.57-.22,6.68-.67c2.11-.45,3.96-1.19,5.55-2.22,1.59-1.03,2.85-2.37,3.78-4.03s1.39-3.71,1.39-6.16c0-1.77-.26-3.33-.79-4.66s-1.29-2.52-2.29-3.56c-1-1.04-2.2-1.97-3.59-2.8s-2.97-1.6-4.72-2.34c-1.28-.53-2.44-1.04-3.45-1.54-1.02-.5-1.88-1.01-2.6-1.53-.71-.52-1.26-1.07-1.65-1.65-.39-.58-.58-1.24-.58-1.97,0-.67.17-1.28.52-1.82s.84-1,1.47-1.39c.63-.39,1.41-.69,2.32-.9.92-.21,1.94-.32,3.06-.32.82,0,1.68.06,2.58.18.91.12,1.82.31,2.74.57.92.25,1.81.58,2.67.96.87.39,1.67.84,2.4,1.34v-9.14c-1.49-.57-3.11-.99-4.88-1.27s-3.79-.41-6.07-.41-4.52.25-6.6.75-3.91,1.28-5.49,2.34c-1.58,1.06-2.83,2.41-3.74,4.05-.92,1.64-1.38,3.6-1.38,5.88,0,2.91.84,5.4,2.52,7.46,1.68,2.06,4.23,3.8,7.66,5.22,1.34.55,2.6,1.09,3.76,1.62s2.17,1.08,3.01,1.65c.85.57,1.51,1.19,2,1.86.49.67.73,1.44.73,2.29,0,.63-.15,1.22-.46,1.76s-.77,1.01-1.39,1.41-1.4.71-2.32.93c-.93.22-2.01.34-3.26.34-2.12,0-4.22-.37-6.3-1.12-2.08-.74-4-1.86-5.78-3.35h0ZM55.46,65.48h12.54v-8.02h-34.96v8.02h12.48v35.73h9.94v-35.73Z"/></svg>