<?xml version="1.0" encoding="UTF-8"?><svg id="Layer_1" xmlns="http://www.w3.org/2000/svg" viewBox="0 0 120 120"><defs><style>.cls-1{fill:#fff;}.cls-1,.cls-2,.cls-3{stroke-width:0px;}.cls-2{fill:#672a7a;}.cls-3{fill:#9d4f96;}</style></defs><path class="cls-3" d="M101.62,33.06L62.55,10.57c-.65-.41-1.54-.57-2.51-.57s-1.86.24-2.51.57l-38.83,22.57c-1.38.81-2.35,2.83-2.35,4.37v45.06c0,.89.16,1.94.81,2.83l86.41-50.16c-.49-.97-1.22-1.7-1.94-2.18Z"/><path class="cls-2" d="M16.92,85.32c.4.65.97,1.21,1.54,1.54l39,22.57c.65.4,1.54.57,2.51.57s1.86-.24,2.51-.57l38.83-22.57c1.38-.81,2.35-2.83,2.35-4.37v-45.06c0-.73-.08-1.54-.49-2.27,0,0-86.25,50.16-86.25,50.16Z"/><path class="cls-1" d="M77.26,69.79c-3.4,5.99-9.87,10.03-17.23,10.03-10.92,0-19.82-8.9-19.82-19.82s8.9-19.82,19.82-19.82c7.36,0,13.83,4.05,17.23,10.11l10.52-6.07c-5.5-9.63-15.86-16.18-27.75-16.18-17.64,0-31.96,14.32-31.96,31.96s14.32,31.96,31.96,31.96c11.81,0,22.17-6.47,27.67-16.02l-10.44-6.15ZM86.73,61.78l.73-3.48h-3.4v-3.8h4.13l.97-5.02h3.96l-.97,4.94h3.07l.97-4.94h3.88l-.97,4.94h1.94v3.8h-2.67l-.73,3.48h3.4v3.8h-4.13l-.97,4.85h-3.95l.97-4.85h-3.07l-.97,4.85h-3.88l.97-4.85h-1.94v-3.8h2.67v.08h-.01ZM90.62,61.78h3.07l.73-3.48h-3.07l-.73,3.48Z"/></svg>