<?xml version="1.0" encoding="UTF-8"?><svg id="Layer_1" xmlns="http://www.w3.org/2000/svg" viewBox="0 0 120 120"><defs><style>.cls-1{fill:#4dc1bb;}.cls-1,.cls-2,.cls-3,.cls-4{stroke-width:0px;}.cls-2{fill:#2475bb;}.cls-3{fill:#2fbcaf;}.cls-4{fill:#0aa6e0;}</style></defs><path class="cls-3" d="M37.29,37.02l-6.55-6.55v47.12l.08,2.21c0,1.03.16,2.21.55,3.39l51.79,18.24,12.87-5.68s-58.74-58.73-58.74-58.73Z"/><path class="cls-1" d="M96.03,95.75l-12.87,5.68-51.63-18.23c1.03,3.79,3.16,7.97,5.53,10.42l16.82,16.74,37.58.08,4.57-14.69Z"/><path class="cls-2" d="M10.85,60.86c-1.66,1.74-.79,5.45,1.82,8.21l11.6,11.68,7.26,2.61c-.24-1.18-.55-2.37-.55-3.39l-.08-2.21-.16-47.21M96.03,95.75l5.68-12.95-18.16-51.78c-1.18-.24-2.37-.47-3.39-.55l-2.29-.08-47.05.08"/><path class="cls-4" d="M83.4,31.02q.15,0,0,0,.15,0,0,0ZM96.03,95.75l13.97-4.58v-38.44l-16.1-16.19c-2.37-2.37-6.55-4.58-10.42-5.53l18.24,51.79"/><path class="cls-3" d="M80.95,23.83l-11.68-11.6c-2.68-2.68-6.32-3.47-8.21-1.82l-30.32,20.05h46.97l2.29.08c1.03,0,2.21.16,3.39.55.01,0-2.44-7.26-2.44-7.26Z"/></svg>