<?xml version="1.0" encoding="UTF-8"?><svg id="Layer_1" xmlns="http://www.w3.org/2000/svg" viewBox="0 0 120 120"><defs><style>.cls-1,.cls-2{fill:#00acd7;stroke-width:0px;}.cls-2{fill-rule:evenodd;}</style></defs><path class="cls-2" d="M17.56,52.63c-.2,0-.24-.1-.15-.24l1.02-1.32c.1-.15.34-.24.54-.24h17.38c.2,0,.24.15.15.29l-.83,1.27c-.1.15-.34.29-.49.29l-17.62-.05ZM10.2,57.11c-.19,0-.24-.1-.15-.24l1.02-1.31c.1-.15.34-.24.54-.24h22.2c.19,0,.29.15.24.29l-.39,1.17c-.05.2-.24.29-.44.29l-23.02.04ZM21.99,61.59c-.19,0-.24-.15-.15-.29l.68-1.22c.1-.15.29-.29.49-.29h9.74c.2,0,.29.15.29.34l-.1,1.17c0,.2-.2.34-.34.34l-10.61-.05ZM72.53,51.76c-3.07.78-5.16,1.36-8.18,2.14-.73.2-.78.24-1.41-.49-.73-.83-1.27-1.36-2.29-1.85-3.07-1.51-6.04-1.07-8.81.73-3.31,2.14-5.01,5.31-4.97,9.25.05,3.9,2.73,7.11,6.57,7.64,3.31.44,6.09-.73,8.28-3.21.44-.54.83-1.12,1.31-1.8h-9.4c-1.02,0-1.27-.63-.92-1.46.63-1.51,1.8-4.04,2.48-5.31.15-.29.49-.78,1.22-.78h17.72c-.1,1.32-.1,2.63-.29,3.94-.54,3.51-1.85,6.72-3.99,9.54-3.51,4.63-8.08,7.5-13.88,8.28-4.77.63-9.2-.29-13.1-3.21-3.6-2.73-5.65-6.33-6.18-10.81-.63-5.31.92-10.08,4.14-14.27,3.46-4.53,8.03-7.4,13.63-8.42,4.58-.83,8.96-.29,12.9,2.39,2.58,1.7,4.43,4.04,5.65,6.86.3.45.1.69-.48.84h0Z"/><path class="cls-1" d="M88.64,78.68c-4.43-.1-8.47-1.36-11.88-4.29-2.87-2.48-4.67-5.65-5.26-9.4-.88-5.5.63-10.37,3.94-14.7,3.55-4.67,7.84-7.11,13.63-8.13,4.97-.88,9.64-.39,13.88,2.48,3.85,2.63,6.23,6.18,6.86,10.86.83,6.57-1.07,11.93-5.6,16.51-3.21,3.26-7.16,5.31-11.68,6.23-1.31.25-2.62.29-3.89.44ZM100.23,59.01c-.05-.63-.05-1.12-.15-1.61-.88-4.82-5.31-7.55-9.93-6.48-4.53,1.02-7.45,3.89-8.52,8.47-.88,3.8.97,7.64,4.48,9.2,2.68,1.17,5.36,1.02,7.94-.29,3.84-1.99,5.94-5.1,6.18-9.29Z"/></svg>