<?xml version="1.0" encoding="UTF-8"?><svg id="Layer_1" xmlns="http://www.w3.org/2000/svg" viewBox="0 0 120 120"><defs><style>.cls-1{fill:#f0dc4f;}.cls-1,.cls-2{stroke-width:0px;}.cls-2{fill:#323330;}</style></defs><path class="cls-1" d="M10,10h100v100H10V10Z"/><path class="cls-2" d="M101.82,86.15c-.73-4.56-3.71-8.39-12.52-11.97-3.06-1.41-6.47-2.41-7.49-4.73-.36-1.35-.41-2.11-.18-2.93.66-2.65,3.82-3.48,6.33-2.72,1.62.54,3.15,1.79,4.07,3.77,4.32-2.79,4.31-2.78,7.32-4.7-1.1-1.71-1.69-2.5-2.41-3.23-2.6-2.9-6.13-4.39-11.79-4.28l-2.95.38c-2.82.71-5.51,2.2-7.09,4.18-4.73,5.37-3.38,14.77,2.38,18.64,5.67,4.26,14.01,5.23,15.08,9.21,1.04,4.88-3.58,6.45-8.18,5.89-3.38-.7-5.27-2.42-7.3-5.55q-3.74,2.17-7.6,4.38c.91,2,1.87,2.9,3.4,4.63,7.24,7.35,25.37,6.99,28.62-4.13.13-.38,1.01-2.93.3-6.85ZM64.36,55.96h-9.35l-.04,24.18c0,5.14.27,9.86-.57,11.3-1.37,2.84-4.91,2.49-6.53,1.94-1.64-.81-2.48-1.96-3.45-3.58-.27-.47-.47-.83-.53-.86l-7.6,4.66c1.26,2.6,3.13,4.85,5.51,6.31,3.56,2.14,8.35,2.8,13.37,1.64,3.26-.95,6.07-2.92,7.55-5.91,2.13-3.93,1.67-8.68,1.65-13.93.05-8.58,0-17.15,0-25.75Z"/></svg>