<?xml version="1.0" encoding="UTF-8"?><svg id="Layer_1" xmlns="http://www.w3.org/2000/svg" viewBox="0 0 120 120"><defs><style>.cls-1{fill:#075a9d;stroke-width:0px;}</style></defs><path class="cls-1" d="M59.86,110c-26.87,0-49.65-22.69-49.86-49.73-.09-13.18,5.09-25.84,14.4-35.17,9.37-9.59,22.19-15.03,35.59-15.1,13.16-.01,25.79,5.23,35.07,14.57,9.44,9.2,14.81,21.79,14.93,34.97.12,27.64-22.09,50.19-49.73,50.47h-.41ZM60.02,12.62c-12.71.08-24.85,5.24-33.73,14.33-8.83,8.82-13.75,20.81-13.68,33.3.19,25.63,21.79,47.11,47.23,47.11h.34c26.21-.24,47.29-21.6,47.2-47.81-.12-12.49-5.21-24.41-14.16-33.12-8.78-8.86-20.73-13.83-33.2-13.81h0Z"/><path class="cls-1" d="M21.22,74.62v-29.21h7.11v2.62h-3.77v24.03h3.77v2.62l-7.11-.05h0ZM45.34,59.73c0,5.33-3.23,8.36-7.62,8.36s-7.3-3.42-7.3-8.09,3.06-8.32,7.54-8.32,7.38,3.59,7.38,8.05ZM33.48,59.97c0,3.23,1.62,5.8,4.41,5.8s4.39-2.62,4.39-5.92c0-3-1.48-5.83-4.39-5.83s-4.43,2.74-4.43,6.01l.03-.07h0ZM47.8,52.23c1.39-.24,2.8-.36,4.21-.35,1.59-.15,3.18.2,4.55,1.01,1.05.62,1.68,1.75,1.65,2.97-.04,1.59-1.09,2.98-2.62,3.44,1.87.38,3.21,2.02,3.21,3.93.02,1.27-.54,2.47-1.53,3.27-1.13,1-3,1.48-5.89,1.48-1.19,0-2.38-.07-3.56-.21l-.03-15.53h0ZM50.67,58.5h1.48c2,0,3.13-.94,3.13-2.29s-1.13-2.17-2.97-2.17c-.55-.02-1.11.02-1.65.12l.02,4.34h0ZM50.67,65.8c.51.05,1.02.08,1.53.06,1.86,0,3.51-.71,3.51-2.62s-1.6-2.62-3.6-2.62h-1.44v5.17h0ZM64.52,52.02h2.89v10.32c0,4.39-2.12,5.85-5.23,5.85-.83,0-1.66-.15-2.45-.42l.35-2.33c.58.18,1.18.28,1.8.29,1.65,0,2.62-.76,2.62-3.51l.02-10.21h0ZM75.65,60.62v2h-6.02v-2h6.02ZM89.7,67.43c-1.3.52-2.7.76-4.09.71-5.04,0-8.1-3.15-8.1-7.98-.23-4.4,3.15-8.16,7.55-8.39.31-.02.62-.02.93,0,1.35-.06,2.69.19,3.93.71l-.64,2.3c-.99-.42-2.05-.63-3.12-.62-3.23,0-5.56,2.03-5.56,5.85,0,3.48,2.06,5.73,5.54,5.73,1.08.02,2.15-.18,3.15-.59,0,0,.42,2.27.42,2.27ZM98.78,45.33v29.29h-7.11v-2.62h3.77v-24.05h-3.77v-2.62h7.11Z"/></svg>